# xmcd
#
# Track frame offsets:
#	150
#	20572
#	41770
#	58157
#	77767
#	91307
#	107550
#	118257
#	133172
#	147197
#	164197
#	179525
#	191357
#	204740
#	218152
#	230435
#	249785
#	264457
#
# Disc length: 3722 seconds
# Revision: 6
# Processed by: cddbd v1.5.2PL0 Copyright (c) Steve Scherf et al.
# Submitted via: dBpowerAMP V12.0
#
DISCID=0b0e8812
DTITLE=Kris Kristofferson - The Essential Kris Kristofferson, Disc 1 of 2
DYEAR=2004
DGENRE=Country
TTITLE0=Sunday Mornin' Comin' Down
TTITLE1=To Beat the Devil
TTITLE2=Just the Other Side of Nowhere
TTITLE3=Me and Bobby McGee
TTITLE4=The Best of All Possible Worlds
TTITLE5=Casey's Last Ride
TTITLE6=Help Me Make It Through The Night
TTITLE7=Darby's Castle
TTITLE8=Jody and the Kid
TTITLE9=Loving Her Was Easier (Than Anything I'll Ever Do Again)
TTITLE10=For the Good Times
TTITLE11=Come Sundown
TTITLE12=From the Bottle to the Bottom
TTITLE13=Billy Dee
TTITLE14=Breakdown (A Long Way from Home)
TTITLE15=The Silver Tongued Devil and I
TTITLE16=The Taker
TTITLE17=The Pilgrim: Chapter 33 (Live)
EXTD=
EXTT0=
EXTT1=
EXTT2=
EXTT3=
EXTT4=
EXTT5=
EXTT6=
EXTT7=
EXTT8=
EXTT9=
EXTT10=
EXTT11=
EXTT12=
EXTT13=
EXTT14=
EXTT15=
EXTT16=
EXTT17=
PLAYORDER=
